# xmcd
#
# Track frame offsets:
#	150
#	11715
#	28197
#	41160
#	52812
#	65142
#	78675
#	93162
#	106072
#	120360
#
# Disc length: 1775 seconds
#
# Revision: 4
# Processed by: cddbd v1.5.2PL0 Copyright (c) Steve Scherf et al.
# Submitted via: audiograbber 1.83.01
#
DISCID=7b06ed0a
DTITLE=Freddy Fender - Before The Next Teardrop Falls
DYEAR=1900
DGENRE=Oldies
TTITLE0=Before The Next Teardrop Falls
TTITLE1=Secret Love
TTITLE2=You'll Lose A Good Thing
TTITLE3=Living It Down
TTITLE4=Wasted Days And Wasted Nights
TTITLE5=After The Fire Is Gone
TTITLE6=Roses Are Red
TTITLE7=I Love My Rancho Grande
TTITLE8=Wild Side Of Life
TTITLE9=Cajun Stomp
EXTD=
EXTT0=
EXTT1=
EXTT2=
EXTT3=
EXTT4=
EXTT5=
EXTT6=
EXTT7=
EXTT8=
EXTT9=
PLAYORDER=
